<svg xmlns="http://www.w3.org/2000/svg" version="1.1" xmlns:xlink="http://www.w3.org/1999/xlink" xmlns:svgjs="http://svgjs.dev/svgjs" width="1440" height="560" preserveAspectRatio="none" viewBox="0 0 1440 560"><g mask="url(&quot;#SvgjsMask1034&quot;)" fill="none"><rect width="1440" height="560" x="0" y="0" fill="rgba(86, 155, 226, 1)"></rect><path d="M744 380L743 710" stroke-width="6" stroke="url(&quot;#SvgjsLinearGradient1035&quot;)" stroke-linecap="round" class="Up"></path><path d="M261 105L260 382" stroke-width="6" stroke="url(&quot;#SvgjsLinearGradient1036&quot;)" stroke-linecap="round" class="Down"></path><path d="M365 422L364 588" stroke-width="8" stroke="url(&quot;#SvgjsLinearGradient1035&quot;)" stroke-linecap="round" class="Up"></path><path d="M154 454L153 199" stroke-width="10" stroke="url(&quot;#SvgjsLinearGradient1036&quot;)" stroke-linecap="round" class="Down"></path><path d="M169 447L168 147" stroke-width="10" stroke="url(&quot;#SvgjsLinearGradient1036&quot;)" stroke-linecap="round" class="Down"></path><path d="M853 334L852 583" stroke-width="8" stroke="url(&quot;#SvgjsLinearGradient1035&quot;)" stroke-linecap="round" class="Up"></path><path d="M248 28L247 -390" stroke-width="6" stroke="url(&quot;#SvgjsLinearGradient1036&quot;)" stroke-linecap="round" class="Down"></path><path d="M1435 90L1434 292" stroke-width="10" stroke="url(&quot;#SvgjsLinearGradient1036&quot;)" stroke-linecap="round" class="Down"></path><path d="M1221 17L1220 413" stroke-width="6" stroke="url(&quot;#SvgjsLinearGradient1036&quot;)" stroke-linecap="round" class="Down"></path><path d="M533 488L532 633" stroke-width="8" stroke="url(&quot;#SvgjsLinearGradient1036&quot;)" stroke-linecap="round" class="Down"></path><path d="M944 479L943 263" stroke-width="10" stroke="url(&quot;#SvgjsLinearGradient1036&quot;)" stroke-linecap="round" class="Down"></path><path d="M1112 197L1111 432" stroke-width="6" stroke="url(&quot;#SvgjsLinearGradient1035&quot;)" stroke-linecap="round" class="Up"></path><path d="M1011 560L1010 785" stroke-width="10" stroke="url(&quot;#SvgjsLinearGradient1035&quot;)" stroke-linecap="round" class="Up"></path><path d="M74 236L73 -71" stroke-width="8" stroke="url(&quot;#SvgjsLinearGradient1035&quot;)" stroke-linecap="round" class="Up"></path><path d="M1216 5L1215 153" stroke-width="6" stroke="url(&quot;#SvgjsLinearGradient1035&quot;)" stroke-linecap="round" class="Up"></path><path d="M1286 421L1285 155" stroke-width="10" stroke="url(&quot;#SvgjsLinearGradient1036&quot;)" stroke-linecap="round" class="Down"></path><path d="M548 228L547 -70" stroke-width="6" stroke="url(&quot;#SvgjsLinearGradient1036&quot;)" stroke-linecap="round" class="Down"></path><path d="M1196 244L1195 -113" stroke-width="6" stroke="url(&quot;#SvgjsLinearGradient1036&quot;)" stroke-linecap="round" class="Down"></path><path d="M692 91L691 -166" stroke-width="10" stroke="url(&quot;#SvgjsLinearGradient1036&quot;)" stroke-linecap="round" class="Down"></path><path d="M917 133L916 506" stroke-width="10" stroke="url(&quot;#SvgjsLinearGradient1036&quot;)" stroke-linecap="round" class="Down"></path><path d="M880 43L879 -243" stroke-width="6" stroke="url(&quot;#SvgjsLinearGradient1035&quot;)" stroke-linecap="round" class="Up"></path><path d="M1139 56L1138 -303" stroke-width="10" stroke="url(&quot;#SvgjsLinearGradient1036&quot;)" stroke-linecap="round" class="Down"></path><path d="M90 361L89 663" stroke-width="6" stroke="url(&quot;#SvgjsLinearGradient1035&quot;)" stroke-linecap="round" class="Up"></path><path d="M344 35L343 -148" stroke-width="8" stroke="url(&quot;#SvgjsLinearGradient1035&quot;)" stroke-linecap="round" class="Up"></path><path d="M325 98L324 -85" stroke-width="6" stroke="url(&quot;#SvgjsLinearGradient1035&quot;)" stroke-linecap="round" class="Up"></path><path d="M1034 35L1033 353" stroke-width="10" stroke="url(&quot;#SvgjsLinearGradient1036&quot;)" stroke-linecap="round" class="Down"></path><path d="M857 83L856 -146" stroke-width="10" stroke="url(&quot;#SvgjsLinearGradient1036&quot;)" stroke-linecap="round" class="Down"></path><path d="M713 69L712 -161" stroke-width="8" stroke="url(&quot;#SvgjsLinearGradient1035&quot;)" stroke-linecap="round" class="Up"></path><path d="M77 162L76 455" stroke-width="10" stroke="url(&quot;#SvgjsLinearGradient1036&quot;)" stroke-linecap="round" class="Down"></path><path d="M1323 200L1322 -182" stroke-width="10" stroke="url(&quot;#SvgjsLinearGradient1036&quot;)" stroke-linecap="round" class="Down"></path><path d="M498 538L497 376" stroke-width="10" stroke="url(&quot;#SvgjsLinearGradient1035&quot;)" stroke-linecap="round" class="Up"></path><path d="M1177 218L1176 629" stroke-width="8" stroke="url(&quot;#SvgjsLinearGradient1036&quot;)" stroke-linecap="round" class="Down"></path><path d="M1396 234L1395 64" stroke-width="6" stroke="url(&quot;#SvgjsLinearGradient1036&quot;)" stroke-linecap="round" class="Down"></path><path d="M652 129L651 -168" stroke-width="6" stroke="url(&quot;#SvgjsLinearGradient1036&quot;)" stroke-linecap="round" class="Down"></path><path d="M58 416L57 687" stroke-width="10" stroke="url(&quot;#SvgjsLinearGradient1036&quot;)" stroke-linecap="round" class="Down"></path><path d="M230 535L229 194" stroke-width="8" stroke="url(&quot;#SvgjsLinearGradient1035&quot;)" stroke-linecap="round" class="Up"></path></g><defs><mask id="SvgjsMask1034"><rect width="1440" height="560" fill="#ffffff"></rect></mask><linearGradient x1="0%" y1="100%" x2="0%" y2="0%" id="SvgjsLinearGradient1035"><stop stop-color="rgba(148, 171, 241, 0)" offset="0"></stop><stop stop-color="rgba(148, 171, 241, 1)" offset="1"></stop></linearGradient><linearGradient x1="0%" y1="0%" x2="0%" y2="100%" id="SvgjsLinearGradient1036"><stop stop-color="rgba(148, 171, 241, 0)" offset="0"></stop><stop stop-color="rgba(148, 171, 241, 1)" offset="1"></stop></linearGradient></defs></svg>