<svg xmlns="http://www.w3.org/2000/svg" version="1.1" xmlns:xlink="http://www.w3.org/1999/xlink" xmlns:svgjs="http://svgjs.dev/svgjs" width="1440" height="560" preserveAspectRatio="none" viewBox="0 0 1440 560"><g mask="url(&quot;#SvgjsMask1004&quot;)" fill="none"><rect width="1440" height="560" x="0" y="0" fill="url(&quot;#SvgjsLinearGradient1005&quot;)"></rect><path d="M 0,28 C 57.6,67.8 172.8,215 288,227 C 403.2,239 460.8,99 576,88 C 691.2,77 748.8,163.2 864,172 C 979.2,180.8 1036.8,137.4 1152,132 C 1267.2,126.6 1382.4,142.4 1440,145L1440 560L0 560z" fill="#184a7e"></path><path d="M 0,419 C 96,442.4 288,539.2 480,536 C 672,532.8 768,401.4 960,403 C 1152,404.6 1344,515.8 1440,544L1440 560L0 560z" fill="#2264ab"></path></g><defs><mask id="SvgjsMask1004"><rect width="1440" height="560" fill="#ffffff"></rect></mask><linearGradient x1="15.28%" y1="-39.29%" x2="84.72%" y2="139.29%" gradientUnits="userSpaceOnUse" id="SvgjsLinearGradient1005"><stop stop-color="#0e2a47" offset="0"></stop><stop stop-color="#00459e" offset="1"></stop></linearGradient></defs></svg>